# xmcd CD database file
#
# Track frame offsets:
#	150
#	23931
#	49918
#	64579
#	88231
#	110538
#	147029
#	172721
#
# Disc length: 2594 seconds
#
# Revision: 0
# Processed by: cddbd v1.5.2PL0 Copyright (c) Steve Scherf et al.
# Submitted via: CDex 2.00
#
DISCID=640a2008
DTITLE=Ernesto Cervini's Turboprop - Abundance
DYEAR=2018
DGENRE=Jazz
TTITLE0=The Queen
TTITLE1=Tadd's Delight
TTITLE2=My Shining Hour
TTITLE3=Smile
TTITLE4=Abundance Overture
TTITLE5=The Ten Thousand Things
TTITLE6=Gramps
TTITLE7=Song for Cito
EXTD=YEAR: 2018
EXTT0=
EXTT1=
EXTT2=
EXTT3=
EXTT4=
EXTT5=
EXTT6=
EXTT7=
PLAYORDER=
